<svg xmlns="http://www.w3.org/2000/svg" xmlns:xlink="http://www.w3.org/1999/xlink" id="Laag_1" width="128" height="128" x="0" y="0" enable-background="new 0 0 128 128" version="1.1" viewBox="0 0 128 128" xml:space="preserve"><g><rect width="9.846" height="4.922" x="39.385" y="61.389"/><rect width="9.847" height="4.922" x="19.692" y="61.389"/><rect width="9.846" height="4.922" y="61.389"/><rect width="9.847" height="4.922" x="98.461" y="61.389"/><rect width="9.847" height="4.922" x="78.771" y="61.389"/><rect width="9.847" height="4.922" x="118.154" y="61.389"/><rect width="4.922" height="9.846" x="61.707" y="39.385"/><rect width="4.922" height="9.846" x="61.707"/><rect width="4.922" height="9.847" x="61.707" y="78.771"/><rect width="4.922" height="9.847" x="61.707" y="19.692"/><rect width="4.922" height="9.848" x="61.707" y="98.461"/><polygon points="66.629 59.077 61.707 59.077 61.707 61.389 59.077 61.389 59.077 66.312 61.707 66.312 61.707 68.924 66.629 68.924 66.629 66.312 68.923 66.312 68.923 61.389 66.629 61.389"/><rect width="4.922" height="9.847" x="61.707" y="118.153"/></g><rect width="30.604" height="30.603" x="73.315" y="24.083"/></svg>