<svg xmlns="http://www.w3.org/2000/svg" xmlns:xlink="http://www.w3.org/1999/xlink" id="Laag_1" width="128" height="128" x="0" y="0" baseProfile="tiny" overflow="inherit" version="1.1" viewBox="0.217 0.217 128 128" xml:space="preserve"><path d="M123.14,127.26l-9.772-9.772l4.886-4.886l9.772,9.772L123.14,127.26z M103.595,107.715l-9.772-9.772l4.886-4.886	l9.772,9.772L103.595,107.715z M84.05,88.17l-9.772-9.772l4.886-4.886l9.772,9.772L84.05,88.17z M64.506,68.625l-9.772-9.772	l4.886-4.886l9.772,9.772L64.506,68.625z M44.962,49.08l-9.772-9.772l4.886-4.886l9.772,9.772L44.962,49.08z"/><path d="M5.763,54.916l7.026,57.619L83.056,95.67L5.763,54.916z M14.22,67.187L63.613,93.23l-44.902,10.777L14.22,67.187z"/><polygon points="56.833 3.845 97.588 81.138 114.451 10.872"/><path d="M0.473,48.733l9.795-1.112c-1.799-16.052,9.486-30.513,25.375-32.804l0.903,4.86L53.452,8.388L34.446,1.174l0.156,3.815	C13.261,7.838-1.965,27.244,0.473,48.733z"/></svg>