<svg xmlns="http://www.w3.org/2000/svg" xmlns:xlink="http://www.w3.org/1999/xlink" id="Laag_1" width="128" height="128" x="0" y="0" enable-background="new 0 0 128 128" version="1.1" viewBox="0 0 128 128" xml:space="preserve"><polygon points="109.885 14.495 83.196 0 83.201 8.14 57.583 8.197 57.583 20.863 83.201 20.792 83.196 28.932 109.885 14.437"/><g><rect width="5.277" height="19.317" x="4.194" y="58.03"/><polygon points="9.472 42.583 16.333 42.583 16.333 37.306 4.194 37.306 4.194 49.444 9.472 49.444"/><rect width="5.277" height="19.316" x="87.584" y="58.029"/><path d="M34.128,35.194l-0.775,2.111h-8.435v5.277h6.497L9.472,102.361v-16.43H4.194v19.316h4.217l-3.151,8.585H4.194v2.904 l-4.165,11.346h93.51l34.098-92.889H34.128z M92.861,102.36v-16.43h-5.277v19.317h4.217l-3.15,8.585h-1.066v2.903l-0.678,1.847 h-73.27l27.124-73.889h46.823v4.75h5.277v-4.75h21.168L92.861,102.36z"/></g></svg>