<svg xmlns="http://www.w3.org/2000/svg" xmlns:xlink="http://www.w3.org/1999/xlink" id="Laag_1" width="128" height="128" x="0" y="0" enable-background="new 0 0 128 128" version="1.1" viewBox="0 0 128 128" xml:space="preserve"><path d="M0,0v128h49.215V0H0z M8.913,50.111L8.913,50.111V30.604h31.388V50.11L8.913,50.111z M40.301,119.088H8.913v-16.587h31.388	V119.088z M8.913,98.044V78.538h31.388v19.506H8.913z"/><path d="M78.785,16.943v82.737H128V16.943H78.785z M119.086,25.856v17.23H87.699v-17.23H119.086z M87.699,67.055V47.547h31.387	v19.505L87.699,67.055L87.699,67.055z M119.086,71.51v19.523H87.699V71.51H119.086z"/><g><polygon points="58.303 64.5 74.326 56.318 58.303 48.021"/></g></svg>