<svg xmlns="http://www.w3.org/2000/svg" xmlns:xlink="http://www.w3.org/1999/xlink" id="Laag_1" width="128" height="128" x="0" y="0" enable-background="new 0 0 128 128" version="1.1" viewBox="0 0 128 128" xml:space="preserve"><g><path d="M7.185,0.013v127.976h49.208V0.013H7.185z M47.479,8.924v17.229h-31.38V8.924H47.479z M16.099,50.114V30.611h31.379v19.503 H16.099z M47.479,54.571v19.52h-31.38v-19.52H47.479L47.479,54.571z M47.479,119.076h-31.38v-16.583h31.379L47.479,119.076 L47.479,119.076z M16.099,98.038V78.537h31.379v19.501H16.099z"/><path d="M51.862,0.013"/></g><rect width="7.608" height="7.608" x="56.13" y="7.656"/><rect width="7.608" height="7.608" x="56.13" y="22.872"/><rect width="7.608" height="7.608" x="56.13" y="38.087"/><rect width="7.608" height="7.608" x="56.13" y="53.303"/><rect width="7.608" height="7.608" x="56.13" y="68.519"/><rect width="7.608" height="7.608" x="56.13" y="83.734"/><rect width="7.608" height="7.608" x="56.13" y="98.95"/><rect width="7.608" height="7.608" x="56.13" y="114.166"/><g><g><path d="M71.161,0.013v127.976h49.208V0.013H71.161z M111.455,8.924v17.229h-31.38V8.924H111.455z M80.075,50.114V30.611h31.379 v19.503H80.075z M111.455,54.571v19.52h-31.38v-19.52H111.455L111.455,54.571z M111.455,119.076h-31.38v-16.583h31.379 L111.455,119.076L111.455,119.076z M80.075,98.038V78.537h31.379v19.501H80.075z"/><path d="M115.838,0.013"/></g><rect width="7.607" height="7.608" x="63.711" y="15.244"/><rect width="7.607" height="7.608" x="63.846"/><rect width="7.607" height="7.608" x="63.711" y="30.459"/><rect width="7.607" height="7.608" x="63.711" y="45.675"/><rect width="7.607" height="7.608" x="63.711" y="60.891"/><rect width="7.607" height="7.608" x="63.711" y="76.106"/><rect width="7.607" height="7.608" x="63.711" y="91.322"/><rect width="7.607" height="7.608" x="63.711" y="106.538"/><rect width="7.607" height="6.198" x="63.711" y="121.754"/></g></svg>